<?xml version="1.0" encoding="UTF-8"?>
<svg width="50" height="50" xmlns="http://www.w3.org/2000/svg">
  <!-- Player character sprite - a simple knight-like figure -->
  <defs>
    <linearGradient id="bodyGradient" x1="0%" y1="0%" x2="0%" y2="100%">
      <stop offset="0%" style="stop-color:#4A90E2;stop-opacity:1" />
      <stop offset="100%" style="stop-color:#2E5C8A;stop-opacity:1" />
    </linearGradient>
    <linearGradient id="helmetGradient" x1="0%" y1="0%" x2="0%" y2="100%">
      <stop offset="0%" style="stop-color:#C0C0C0;stop-opacity:1" />
      <stop offset="100%" style="stop-color:#808080;stop-opacity:1" />
    </linearGradient>
  </defs>
  
  <!-- Body -->
  <rect x="15" y="20" width="20" height="25" fill="url(#bodyGradient)" rx="3"/>
  
  <!-- Arms -->
  <rect x="10" y="22" width="8" height="15" fill="url(#bodyGradient)" rx="2"/>
  <rect x="32" y="22" width="8" height="15" fill="url(#bodyGradient)" rx="2"/>
  
  <!-- Legs -->
  <rect x="18" y="40" width="6" height="8" fill="#2E5C8A" rx="1"/>
  <rect x="26" y="40" width="6" height="8" fill="#2E5C8A" rx="1"/>
  
  <!-- Head/Helmet -->
  <circle cx="25" cy="15" r="8" fill="url(#helmetGradient)"/>
  
  <!-- Helmet visor -->
  <rect x="20" y="12" width="10" height="4" fill="#333333" rx="1"/>
  
  <!-- Eyes (visible through visor) -->
  <circle cx="22" cy="14" r="1" fill="#FF6B6B"/>
  <circle cx="28" cy="14" r="1" fill="#FF6B6B"/>
  
  <!-- Sword -->
  <rect x="38" y="18" width="2" height="12" fill="#8B4513" rx="1"/>
  <rect x="36" y="15" width="6" height="3" fill="#C0C0C0" rx="1"/>
  
  <!-- Shield outline for visual appeal -->
  <circle cx="25" cy="25" r="22" fill="none" stroke="#FFD700" stroke-width="1" opacity="0.3"/>
</svg>